<?xml version="1.0" standalone="no"?>
<!DOCTYPE svg PUBLIC "-//W3C//DTD SVG 20010904//EN"
 "http://www.w3.org/TR/2001/REC-SVG-20010904/DTD/svg10.dtd">
<svg version="1.0" xmlns="http://www.w3.org/2000/svg"
 width="400.000000pt" height="400.000000pt" viewBox="0 0 400.000000 400.000000"
 preserveAspectRatio="xMidYMid meet">
<metadata>
Created by potrace 1.11, written by Peter Selinger 2001-2013
</metadata>
<g transform="translate(0.000000,400.000000) scale(0.100000,-0.100000)"
fill="#000000" stroke="none">
<path d="M1732 3984 c-515 -73 -967 -329 -1293 -732 -228 -282 -387 -659 -426
-1010 -15 -130 -6 -542 12 -571 1 -3 6 -24 9 -46 4 -22 9 -48 12 -57 3 -9 7
-25 9 -37 11 -60 52 -186 91 -282 170 -425 498 -792 905 -1012 133 -72 363
-160 475 -181 11 -2 37 -9 59 -14 22 -6 63 -14 90 -18 28 -3 59 -8 70 -11 49
-12 425 -10 519 3 759 102 1397 631 1636 1356 35 106 77 289 87 383 15 133 7
545 -12 574 -1 3 -6 24 -9 46 -12 77 -59 241 -97 340 -171 445 -500 819 -920
1048 -131 71 -351 155 -475 182 -54 11 -173 35 -204 40 -72 13 -444 12 -538
-1z"/>
</g>
</svg>
